<?xml version="1.0" encoding="UTF-8"?><svg id="Default" xmlns="http://www.w3.org/2000/svg" viewBox="0 0 294.00182 303.49271"><defs><style>.cls-1{fill:#ffda25;}.cls-2{fill:#d49025;}</style></defs><path class="cls-2" d="M147.01549,255.46162c-3.2145-.0073-32.58963-.77994-51.32266-27.05719-14.22836-19.9576-13.35366-42.08006-11.00656-55.08385,.12391-.70705,.75807-1.21,1.47969-1.18083s1.29746,.605,1.35578,1.31204c2.57306,33.06343,29.04712,59.35527,59.49376,59.44274,30.44664-.09476,56.9207-26.38661,59.49375-59.44274,.0583-.72163,.63415-1.28288,1.35576-1.31204s1.35576,.47379,1.47969,1.18083c2.3398,13.00378,3.2145,35.11895-11.00657,55.08385-18.73302,26.27725-48.10816,27.04992-51.32266,27.05719h.00002Z"/><path class="cls-1" d="M273.21922,216.81474c-6.12285,11.79378-32.42927,62.49687-86.15005,80.70508-10.4453,3.53523-20.05235,5.21171-28.20887,5.95522-1.21728,.10933-2.42728-.29156-3.33842-1.12253s-1.42867-2.00451-1.42867-3.2218v-26.60527c0-2.15757,1.57445-3.97985,3.68829-4.31517,39.03321-6.10828,67.90541-40.18489,67.2348-79.23996-.65602-38.07104-29.21476-70.57322-67.21292-76.543-2.13571-.3353-3.70287-2.17945-3.68829-4.34432,.11663-20.00133,.09476-40.03911,0-60.19351-.00729-2.41999,1.95348-4.39534,4.37347-4.39534h117.76294c1.85144,0,3.50606,1.17355,4.11835,2.91565,2.73342,7.77748,8.39705,25.63582,11.49493,49.0266,.20409,1.52342-.40819,3.03227-1.61089,3.99443-1.2027,.95487-2.81359,1.21-4.24954,.6706-16.25472-6.04997-32.50216-12.11451-48.7569-18.16447-.48838-.18223-1.0059-.2697-1.52342-.2697-11.85211,0-23.69692,0-35.5563,.00729-2.4127,0-4.36617,1.96077-4.36617,4.37347v5.63449c0,2.4127,1.96077,4.36618,4.37347,4.36618,12.06348,0,24.12698,0,36.19045-.00729,.62685,0,1.23916,.13849,1.81498,.39361,17.18772,7.82851,34.37547,15.65702,51.55592,23.49281,2.58763,1.18083,4.25684,3.76119,4.26414,6.59665,.09476,27.84442-4.85455,59.58852-20.78855,90.31213h-.0073l.01457-.02184Z"/><path class="cls-1" d="M20.79718,216.81474c6.12286,11.79378,32.42928,62.49687,86.15005,80.70508,10.4453,3.53523,20.05235,5.21171,28.20887,5.95522,1.21728,.10933,2.42728-.29156,3.33842-1.12253s1.42138-2.00451,1.42138-3.2218v-26.60527c0-2.15757-1.57445-3.97985-3.68829-4.31517-39.03321-6.10828-67.9054-40.18489-67.2348-79.23996,.65602-38.07104,29.21478-70.57322,67.21293-76.543,2.13571-.3353,3.70287-2.17945,3.68829-4.34432-.11663-20.00133-.09476-40.03911,0-60.19351,.00729-2.41999-1.95348-4.39534-4.37347-4.39534H17.7649c-1.85143,0-3.50606,1.17355-4.11835,2.91565-2.73342,7.77748-8.39706,25.63582-11.49493,49.0266-.2041,1.52342,.40819,3.03227,1.61089,3.99443s2.8136,1.21,4.24955,.6706c16.25473-6.04997,32.50216-12.11451,48.75689-18.16447,.48837-.18223,1.0059-.27698,1.52342-.27698,11.8521,0,23.69691,0,35.55631,.00729,2.4127,0,4.36618,1.96077,4.36618,4.37347v5.63449c0,2.4127-1.96077,4.36618-4.37347,4.36618-12.06349,0-24.12697,0-36.19046-.00729-.62686,0-1.23915,.13849-1.81499,.39361-17.18773,7.82851-34.36818,15.65702-51.55591,23.49281C1.68512,121.07949,.01591,123.65983,.00133,126.50988c-.09476,27.84442,4.85455,59.58852,20.78856,90.31213l.00729-.00727Z"/><path class="cls-2" d="M68.26228,1.21728c1.26889-.8018,2.73773-1.21728,4.2604-1.21728H221.48275c1.51498,0,2.99919,.43006,4.2604,1.21728,13.30412,8.41164,26.62363,16.81599,39.92777,25.23491,.56907,.34988,.81516,1.01319,.61521,1.63276-.19226,.61229-.79209,1.03505-1.46884,1.03505H29.18045c-.67674,0-1.27658-.42277-1.46884-1.03505-.19226-.61229,.05383-1.2756,.61522-1.63276C41.63865,18.04785,54.95047,9.63621,68.26228,1.21728Z"/></svg>